<svg width="71" height="24" viewBox="0 0 71 24" fill="none" xmlns="http://www.w3.org/2000/svg">
<path d="M14.207 12.0025L14.3113 12.3169L14.6415 12.3435C15.6956 12.4282 16.5724 12.8453 17.339 13.6582C18.0799 14.4438 18.4774 15.5417 18.4774 17.0142C18.4774 18.7955 17.9059 20.2145 16.7561 21.2412C15.603 22.2709 13.9447 22.8214 11.613 22.8214H0.5V1.34302H11.5658C13.4978 1.34302 15.022 1.88206 16.1393 2.87307C17.2522 3.90692 17.8165 5.23815 17.8165 6.96054C17.8165 8.28693 17.4682 9.24453 16.772 9.98507C16.0318 10.7724 15.3338 11.1261 14.5817 11.2056L13.9642 11.2709L14.1597 11.8603L14.207 12.0025ZM5.02327 10.1379V10.6379H5.52327H10.3384C11.2468 10.6379 12.0338 10.366 12.6583 9.79573L12.6671 9.78771L12.6755 9.77927C13.2336 9.21864 13.5765 8.52539 13.5765 7.57704C13.5765 6.73127 13.2856 6.0725 12.7037 5.54636C12.1175 5.0164 11.3729 4.80075 10.5745 4.80075H5.52327H5.02327V5.30075V10.1379ZM5.52327 13.4317H5.02327V13.9317V18.8636V19.3636H5.52327H10.6217C11.5576 19.3636 12.3983 19.1027 12.9869 18.5706C13.5904 18.025 13.8597 17.2575 13.8597 16.3502C13.8597 15.4752 13.5802 14.7549 12.931 14.2168C12.3536 13.6993 11.5704 13.4317 10.7161 13.4317H5.52327ZM37.595 22.8214H33.262V21.709V20.4363L32.3957 21.3687C31.1779 22.6793 29.569 23.343 27.6164 23.343C25.7589 23.343 24.3395 22.7274 23.2633 21.5598C22.1827 20.3875 21.6017 18.8087 21.6017 16.8245V6.98632H25.889V15.6863C25.889 16.7815 26.2027 17.7071 26.8091 18.427C27.4384 19.1741 28.2965 19.5059 29.2686 19.5059C30.4861 19.5059 31.4864 19.0725 32.2066 18.1822C32.9291 17.2888 33.2148 15.9608 33.2148 14.3111V6.98632H37.5506L37.595 22.8214ZM47.0658 10.2544H41.0984V6.98632H53.9774V7.34864L47.3877 18.804L46.9567 19.5533H47.8211H54.0246V22.8214H40.9096V22.459L47.4992 11.0037L47.9303 10.2544H47.0658ZM64.2493 19.5533H70.4583L70.4944 22.8214H57.385V22.4582L63.9282 11.0023L64.3554 10.2544H63.494H57.5266V6.98632H70.4056V7.34864L63.8159 18.804L63.3849 19.5533H64.2493Z" fill="#718087" stroke="black"/>
</svg>
